<?xml version="1.0" standalone="no"?>
<!DOCTYPE svg PUBLIC "-//W3C//DTD SVG 20010904//EN"
 "http://www.w3.org/TR/2001/REC-SVG-20010904/DTD/svg10.dtd">
<svg version="1.0" xmlns="http://www.w3.org/2000/svg"
 width="300.000000pt" height="300.000000pt" viewBox="0 0 300.000000 300.000000"
 preserveAspectRatio="xMidYMid meet">
<metadata>
Created by potrace 1.11, written by Peter Selinger 2001-2013
</metadata>
<g transform="translate(0.000000,300.000000) scale(0.100000,-0.100000)"
fill="#000000" stroke="none">
<path d="M588 2948 c0 -29 -2 -57 -3 -63 -2 -5 -3 -34 -4 -62 l-1 -53 -194 0
c-218 0 -226 -2 -226 -68 0 -61 9 -80 41 -87 27 -6 29 -10 30 -58 1 -84 11
-166 34 -280 11 -54 54 -157 84 -201 38 -55 126 -134 158 -142 23 -6 24 -10
19 -63 -3 -31 -5 -82 -5 -114 l-1 -58 -40 22 c-29 16 -37 26 -29 35 5 6 12 35
16 63 5 41 2 55 -12 71 -26 29 -68 25 -109 -10 -20 -18 -37 -26 -41 -20 -11
17 -90 12 -107 -7 -24 -29 -27 -49 -12 -78 8 -15 13 -29 12 -29 -2 -1 -15 -8
-29 -15 -63 -32 -63 -99 0 -127 27 -12 38 -22 36 -34 -4 -22 23 -77 42 -85 17
-6 83 12 83 23 0 4 8 17 18 29 l17 23 72 -35 72 -34 -4 -68 c-3 -61 -9 -183
-20 -493 -3 -58 -8 -290 -11 -516 l-7 -411 489 1 489 1 1 350 c1 303 8 558 19
646 1 14 6 66 10 115 3 49 8 105 10 124 2 19 6 73 10 119 7 90 12 121 19 128
2 2 4 -11 3 -29 0 -18 4 -96 8 -173 8 -150 9 -186 20 -395 3 -74 9 -151 11
-170 3 -19 7 -179 9 -355 2 -176 4 -329 5 -341 l0 -21 491 0 492 0 -7 286 c-4
157 -9 308 -11 335 -2 27 -6 130 -10 230 -3 99 -8 210 -10 246 -2 36 -6 136
-10 222 l-6 157 28 17 c15 9 52 33 82 52 l53 36 17 -21 c33 -42 97 -57 121
-27 8 8 14 34 14 57 1 36 5 44 31 58 60 33 52 107 -14 130 -24 9 -27 14 -27
55 1 38 -3 47 -25 61 -23 14 -31 14 -70 2 -41 -13 -47 -12 -86 8 -24 11 -52
19 -63 16 -21 -6 -42 -34 -47 -65 -3 -20 22 -84 37 -93 7 -4 0 -16 -17 -31
-29 -25 -43 -30 -44 -16 0 4 -2 52 -5 107 l-5 100 58 28 c64 30 121 80 158
136 27 41 72 169 79 227 12 93 18 153 21 214 2 36 3 68 4 73 1 4 10 7 20 7 33
0 51 28 51 79 0 80 -4 81 -233 81 l-197 0 -1 28 c0 15 -2 56 -4 92 -2 36 -4
75 -4 88 l-1 22 -920 0 -920 0 -2 -52z m-23 -380 c-2 -24 -7 -99 -11 -168 -3
-69 -8 -145 -9 -170 -1 -25 -4 -80 -6 -122 -3 -87 -6 -88 -71 -21 -52 54 -96
154 -114 258 -3 17 -7 36 -9 43 -3 7 -8 60 -11 117 l-7 105 122 0 121 0 -5
-42z m2129 -35 c-3 -77 -11 -162 -18 -199 -23 -115 -52 -182 -100 -232 -30
-32 -75 -62 -94 -62 -5 0 -10 30 -12 68 -1 37 -3 87 -5 112 -1 25 -6 123 -10
218 l-7 172 125 0 124 0 -3 -77z"/>
</g>
</svg>
